<svg width="183" height="48" viewBox="0 0 183 48" fill="none" xmlns="http://www.w3.org/2000/svg">
    <g clip-path="url(#clip0_270_309)">
        <path d="M13.9501 26.7351C12.3652 27.2393 12.0377 31.6634 14.166 38.3548C15.3313 42.0182 16.9901 45.5986 18.5146 48.0091H22.415C22.3124 45.3133 21.4716 41.1397 20.3456 36.945C18.5282 30.1782 15.5335 26.231 13.9501 26.7351Z" fill="#9955CC"/>
        <path d="M7.78266 18.1842C7.96832 15.0823 11.7057 13.6287 13.9125 15.8159C18.2445 20.1087 23.7479 29.4582 24.6732 48.0091H27.3857C27.7223 41.2619 28.6627 35.4778 29.9321 31.0174C30.3019 29.7208 31.3374 28.7231 32.6415 28.3865L33.2091 28.24L40.717 26.3065C42.7442 25.7842 44.8679 26.708 45.8702 28.5465L48.0166 32.4891V9.26192C48.0166 4.17362 43.8913 0.0483398 38.803 0.0483398H9.27096C4.18266 0.0483398 0.057373 4.17362 0.057373 9.26192V38.794C0.057373 43.8823 4.18266 48.0076 9.27096 48.0076H16.071C12.2008 42.4046 6.95096 32.0966 7.78417 18.1827L7.78266 18.1842Z" fill="#9955CC"/>
        <path d="M45.9775 37.105C39.896 35.9397 35.9126 33.674 33.5216 31.8204C32.8605 33.2665 32.2356 34.9872 31.7103 36.945C30.5843 41.1382 29.745 45.3118 29.6409 48.0091H33.5428C35.0658 45.5986 36.7262 42.0182 37.8899 38.3548C38.1511 37.5321 38.376 36.7427 38.5662 35.9925C39.3828 36.6189 40.2899 37.2484 41.2982 37.8672C39.6907 42.1102 37.7028 45.5246 35.9865 48.0106H38.8016C43.8899 48.0106 48.0152 43.8853 48.0152 38.797V36.5752C47.4884 37.025 46.7684 37.2589 45.976 37.108L45.9775 37.105Z" fill="#9955CC"/>
        <path d="M62.9947 42.5132V8.68982H68.1781V21.5381H69.2316L67.2332 23.5593C67.5547 22.5193 68.1071 21.6377 68.892 20.9132C69.6754 20.1887 70.6052 19.6438 71.6815 19.277C72.7577 18.9117 73.9033 18.7276 75.1184 18.7276C77.0067 18.7276 78.5554 19.1336 79.763 19.9472C80.9705 20.7608 81.8611 21.8174 82.4316 23.1215C83.0022 24.4242 83.2875 25.8309 83.2875 27.3389V42.5147H78.1041V28.4362C78.1041 26.7094 77.6679 25.4098 76.7969 24.5374C75.926 23.6664 74.7728 23.2302 73.3373 23.2302C72.3713 23.2302 71.5033 23.4279 70.735 23.8234C69.9667 24.2189 69.3479 24.8045 68.88 25.5804C68.4105 26.3562 68.1766 27.3223 68.1766 28.48V42.5147H62.9932L62.9947 42.5132Z" fill="#9955CC"/>
        <path d="M98.3895 42.8649C96.1631 42.8649 94.1646 42.3487 92.394 41.3162C90.622 40.2838 89.2167 38.8558 88.1767 37.0339C87.1367 35.2106 86.6174 33.1064 86.6174 30.72C86.6174 28.3336 87.1367 26.2611 88.1767 24.4604C89.2167 22.6596 90.622 21.2543 92.394 20.243C94.1661 19.2332 96.1646 18.7275 98.3895 18.7275C100.614 18.7275 102.658 19.2332 104.429 20.243C106.201 21.2528 107.599 22.6581 108.623 24.4604C109.648 26.2611 110.162 28.3472 110.162 30.72C110.162 33.0928 109.645 35.2121 108.613 37.0339C107.58 38.8573 106.175 40.2853 104.396 41.3162C102.616 42.3487 100.614 42.8649 98.388 42.8649H98.3895ZM98.3895 38.2747C99.677 38.2747 100.827 37.9608 101.837 37.3298C102.847 36.7004 103.641 35.8189 104.22 34.6838C104.799 33.5487 105.088 32.2279 105.088 30.72C105.088 29.2121 104.803 27.9457 104.233 26.8332C103.662 25.7207 102.874 24.8558 101.872 24.2415C100.868 23.6272 99.7163 23.3192 98.4121 23.3192C97.108 23.3192 95.9744 23.6272 94.9646 24.2415C93.9548 24.8558 93.1593 25.7207 92.5812 26.8332C92.0031 27.9457 91.7133 29.2423 91.7133 30.72C91.7133 32.1977 92.0016 33.5502 92.5812 34.6838C93.1593 35.8189 93.9503 36.7004 94.9525 37.3298C95.9548 37.9592 97.1004 38.2747 98.3895 38.2747Z" fill="#9955CC"/>
        <path d="M113.884 51.7389V19.0808H118.913V21.8038H119.594L118.451 24.1314V37.0899L119.923 39.7691H119.067V51.7389H113.884ZM126.162 42.865C124.199 42.865 122.445 42.3306 120.901 41.2619C119.357 40.1933 118.137 38.7367 117.244 36.8906C116.35 35.0461 115.896 32.9736 115.882 30.6748C115.897 28.3759 116.34 26.3231 117.211 24.5148C118.082 22.7065 119.283 21.2831 120.812 20.2431C122.343 19.2031 124.095 18.6838 126.072 18.6838C127.902 18.6838 129.623 19.1593 131.233 20.1118C132.844 21.0642 134.143 22.4393 135.132 24.2401C136.121 26.0408 136.599 28.2295 136.571 30.8076C136.586 32.7261 136.306 34.4348 135.736 35.9351C135.165 37.4355 134.388 38.6989 133.408 39.7238C132.427 40.7487 131.31 41.5291 130.059 42.0635C128.808 42.5978 127.508 42.865 126.16 42.865H126.162ZM125.085 38.385C126.315 38.385 127.413 38.0559 128.38 37.3963C129.346 36.7367 130.097 35.834 130.631 34.6838C131.165 33.5352 131.425 32.2204 131.411 30.7412C131.426 29.2182 131.162 27.8899 130.62 26.7548C130.079 25.6197 129.321 24.7382 128.347 24.1087C127.374 23.4793 126.264 23.1714 125.02 23.1865C123.849 23.1714 122.791 23.4687 121.846 24.0755C120.901 24.6838 120.148 25.5502 119.583 26.6778C119.019 27.8053 118.738 29.1593 118.738 30.7412C118.738 32.2204 119.013 33.5336 119.562 34.6838C120.112 35.834 120.862 36.7367 121.813 37.3963C122.764 38.0559 123.855 38.385 125.085 38.385Z" fill="#9955CC"/>
        <path d="M140.273 51.7389V19.0808H145.303V21.8038H145.983L144.841 24.1314V37.0899L146.312 39.7691H145.457V51.7389H140.273ZM152.551 42.865C150.589 42.865 148.835 42.3306 147.291 41.2619C145.746 40.1933 144.527 38.7367 143.633 36.8906C142.74 35.0461 142.285 32.9736 142.272 30.6748C142.287 28.3759 142.729 26.3231 143.6 24.5148C144.471 22.7065 145.672 21.2831 147.201 20.2431C148.732 19.2031 150.485 18.6838 152.462 18.6838C154.291 18.6838 156.012 19.1593 157.623 20.1118C159.233 21.0642 160.533 22.4393 161.521 24.2401C162.51 26.0408 162.989 28.2295 162.96 30.8076C162.975 32.7261 162.696 34.4348 162.125 35.9351C161.555 37.4355 160.777 38.6989 159.798 39.7238C158.817 40.7487 157.7 41.5291 156.448 42.0635C155.197 42.5978 153.897 42.865 152.549 42.865H152.551ZM151.475 38.385C152.705 38.385 153.802 38.0559 154.77 37.3963C155.736 36.7367 156.486 35.834 157.02 34.6838C157.555 33.5352 157.814 32.2204 157.801 30.7412C157.816 29.2182 157.552 27.8899 157.01 26.7548C156.468 25.6197 155.71 24.7382 154.737 24.1087C153.763 23.4793 152.654 23.1714 151.41 23.1865C150.238 23.1714 149.18 23.4687 148.235 24.0755C147.291 24.6838 146.537 25.5502 145.973 26.6778C145.408 27.8053 145.128 29.1593 145.128 30.7412C145.128 32.2204 145.402 33.5336 145.952 34.6838C146.501 35.834 147.251 36.7367 148.202 37.3963C149.153 38.0559 150.245 38.385 151.475 38.385Z" fill="#9955CC"/>
        <path d="M173.976 42.8649C172.571 42.8649 171.266 42.6083 170.066 42.0966C168.865 41.5849 167.837 40.8996 166.981 40.0438C166.125 39.1879 165.506 38.2536 165.126 37.2438L169.518 35.3555C169.84 36.1751 170.407 36.9072 171.221 37.5517C172.033 38.1962 172.952 38.5177 173.977 38.5177C174.607 38.5177 175.185 38.397 175.713 38.1555C176.241 37.914 176.664 37.5879 176.987 37.1789C177.309 36.7698 177.47 36.3155 177.47 35.8174C177.47 35.2604 177.283 34.7819 176.91 34.3789C176.537 33.9758 176.068 33.6362 175.505 33.357C174.94 33.0792 174.355 32.8453 173.748 32.6536C173.14 32.4634 172.61 32.2943 172.155 32.1479C171.159 31.84 170.175 31.4158 169.201 30.874C168.228 30.3321 167.419 29.6181 166.774 28.7321C166.13 27.846 165.808 26.7306 165.808 25.3826C165.808 24.0347 166.16 22.8392 166.862 21.8355C167.565 20.8332 168.501 20.0634 169.672 19.529C170.844 18.9947 172.139 18.7275 173.559 18.7275C175.521 18.7275 177.212 19.2 178.632 20.1434C180.053 21.0883 181.055 22.2189 181.641 23.5366L177.336 25.3373C177.043 24.7955 176.604 24.2687 176.018 23.7555C175.432 23.2438 174.657 22.9872 173.691 22.9872C172.856 22.9872 172.142 23.203 171.549 23.6347C170.955 24.0664 170.66 24.6702 170.66 25.446C170.66 26.1057 170.875 26.6355 171.307 27.0385C171.739 27.4415 172.314 27.7781 173.031 28.0483C173.748 28.32 174.524 28.5932 175.358 28.8724C175.973 29.0626 176.673 29.3162 177.457 29.6302C178.24 29.9456 179.001 30.3592 179.74 30.8709C180.48 31.3841 181.087 32.0317 181.564 32.8151C182.039 33.5985 182.278 34.554 182.278 35.6815C182.278 37.0868 181.897 38.3321 181.135 39.4158C180.374 40.4996 179.363 41.3449 178.104 41.9532C176.845 42.56 175.469 42.8649 173.976 42.8649Z" fill="#9955CC"/>
    </g>
    <defs>
        <clipPath id="clip0_270_309">
            <rect width="182.34" height="48" fill="white"/>
        </clipPath>
    </defs>
</svg>