<svg width="348" height="92" viewBox="0 0 348 92" fill="none" xmlns="http://www.w3.org/2000/svg">
<g clip-path="url(#clip0_247_637)">
<path d="M26.624 51.2418C23.5992 52.2081 22.9741 60.6877 27.036 73.5128C29.26 80.5343 32.4259 87.3967 35.3355 92.017H42.7795C42.5836 86.8499 40.979 78.8505 38.83 70.8106C35.3615 57.841 29.646 50.2755 26.624 51.2418Z" fill="#9955CC"/>
<path d="M14.8533 34.8531C15.2076 28.9079 22.3405 26.1218 26.5522 30.3139C34.8201 38.5418 45.3235 56.4616 47.0894 92.0176H52.2662C52.9086 79.0855 54.7033 67.9992 57.1261 59.4501C57.8319 56.965 59.8081 55.0526 62.2971 54.4075L63.3803 54.1269L77.7093 50.4208C81.5782 49.4198 85.6315 51.1904 87.5444 54.7142L91.6409 62.2709V17.7521C91.6409 7.99956 83.7677 0.0927734 74.0565 0.0927734H17.6937C7.98259 0.0927734 0.109375 7.99956 0.109375 17.7521V74.3553C0.109375 84.1079 7.98259 92.0147 17.6937 92.0147H30.6717C23.2854 81.2756 13.266 61.5187 14.8562 34.8503L14.8533 34.8531Z" fill="#9955CC"/>
<path d="M87.7491 71.1179C76.1424 68.8845 68.54 64.542 63.9768 60.9893C62.7151 63.7608 61.5224 67.0589 60.5199 70.8113C58.3708 78.8483 56.7691 86.8476 56.5703 92.0176H64.0172C66.9239 87.3973 70.0928 80.5349 72.3139 73.5134C72.8122 71.9367 73.2415 70.4236 73.6045 68.9857C75.163 70.1864 76.8943 71.3928 78.8187 72.5789C75.7506 80.7114 71.9566 87.2555 68.6812 92.0204H74.0539C83.765 92.0204 91.6382 84.1137 91.6382 74.3611V70.1025C90.6328 70.9646 89.2587 71.413 87.7463 71.1237L87.7491 71.1179Z" fill="#9955CC"/>
<path d="M120.227 81.4835V16.6553H130.12V41.2812H132.131L128.317 45.155C128.93 43.1617 129.984 41.4721 131.482 40.0834C132.978 38.6948 134.752 37.6504 136.806 36.9474C138.86 36.2472 141.047 35.8943 143.366 35.8943C146.97 35.8943 149.925 36.6725 152.23 38.2319C154.535 39.7913 156.234 41.8164 157.323 44.316C158.412 46.8128 158.957 49.5091 158.957 52.3993V81.4864H149.064V54.5026C149.064 51.1929 148.231 48.7019 146.569 47.0297C144.907 45.3604 142.706 44.5243 139.966 44.5243C138.123 44.5243 136.466 44.9033 135 45.6613C133.534 46.4193 132.353 47.5418 131.459 49.0289C130.564 50.5159 130.117 52.3675 130.117 54.5865V81.4864H120.224L120.227 81.4835Z" fill="#9955CC"/>
<path d="M187.779 82.1578C183.53 82.1578 179.716 81.1684 176.337 79.1895C172.955 77.2106 170.272 74.4738 168.288 70.9818C166.303 67.487 165.312 63.454 165.312 58.8801C165.312 54.3061 166.303 50.3339 168.288 46.8824C170.272 43.431 172.955 40.7375 176.337 38.7992C179.719 36.8637 183.533 35.8945 187.779 35.8945C192.025 35.8945 195.926 36.8637 199.305 38.7992C202.687 40.7347 205.355 43.4281 207.311 46.8824C209.267 50.3339 210.246 54.3321 210.246 58.8801C210.246 63.428 209.261 67.4899 207.291 70.9818C205.32 74.4767 202.638 77.2135 199.242 79.1895C195.845 81.1684 192.025 82.1578 187.776 82.1578H187.779ZM187.779 73.3599C190.236 73.3599 192.432 72.7582 194.359 71.5489C196.286 70.3425 197.801 68.6529 198.908 66.4773C200.011 64.3017 200.564 61.7703 200.564 58.8801C200.564 55.9899 200.02 53.5626 198.931 51.4304C197.842 49.2982 196.338 47.6404 194.425 46.4629C192.509 45.2855 190.311 44.6953 187.822 44.6953C185.333 44.6953 183.17 45.2855 181.243 46.4629C179.315 47.6404 177.797 49.2982 176.694 51.4304C175.59 53.5626 175.037 56.0477 175.037 58.8801C175.037 61.7124 175.588 64.3046 176.694 66.4773C177.797 68.6529 179.307 70.3425 181.22 71.5489C183.132 72.7553 185.319 73.3599 187.779 73.3599Z" fill="#9955CC"/>
<path d="M217.35 99.1661V36.5714H226.949V41.7905H228.248L226.068 46.2517V71.0888L228.876 76.224H227.243V99.1661H217.35ZM240.783 82.1577C237.038 82.1577 233.69 81.1335 230.743 79.0852C227.796 77.0369 225.468 74.2451 223.763 70.7069C222.058 67.1716 221.19 63.1993 221.165 58.7932C221.193 54.387 222.037 50.4524 223.7 46.9865C225.362 43.5206 227.655 40.7924 230.573 38.7991C233.494 36.8058 236.839 35.8105 240.613 35.8105C244.104 35.8105 247.388 36.7219 250.462 38.5474C253.536 40.3729 256.016 43.0085 257.903 46.46C259.79 49.9114 260.703 54.1064 260.649 59.0478C260.678 62.7249 260.145 65.9998 259.056 68.8756C257.967 71.7513 256.483 74.1728 254.613 76.1372C252.741 78.1016 250.609 79.5973 248.221 80.6215C245.833 81.6456 243.352 82.1577 240.78 82.1577H240.783ZM238.729 73.5711C241.077 73.5711 243.171 72.9403 245.018 71.6761C246.861 70.4118 248.293 68.6817 249.313 66.4772C250.333 64.2756 250.828 61.7557 250.802 58.9205C250.831 56.0013 250.327 53.4554 249.293 51.2798C248.258 49.1042 246.812 47.4147 244.954 46.2083C243.096 45.0019 240.979 44.4117 238.605 44.4406C236.369 44.4117 234.35 44.9816 232.547 46.1446C230.743 47.3105 229.306 48.9712 228.228 51.1323C227.151 53.2934 226.615 55.8885 226.615 58.9205C226.615 61.7557 227.139 64.2727 228.188 66.4772C229.237 68.6817 230.668 70.4118 232.483 71.6761C234.298 72.9403 236.381 73.5711 238.729 73.5711Z" fill="#9955CC"/>
<path d="M267.715 99.1661V36.5714H277.314V41.7905H278.613L276.432 46.2517V71.0888L279.241 76.224H277.608V99.1661H267.715ZM291.147 82.1577C287.402 82.1577 284.055 81.1335 281.108 79.0852C278.161 77.0369 275.833 74.2451 274.128 70.7069C272.422 67.1716 271.555 63.1993 271.529 58.7932C271.558 54.387 272.402 50.4524 274.064 46.9865C275.727 43.5206 278.02 40.7924 280.938 38.7991C283.859 36.8058 287.204 35.8105 290.978 35.8105C294.469 35.8105 297.753 36.7219 300.827 38.5474C303.901 40.3729 306.381 43.0085 308.268 46.46C310.155 49.9114 311.068 54.1064 311.013 59.0478C311.042 62.7249 310.509 65.9998 309.42 68.8756C308.331 71.7513 306.848 74.1728 304.978 76.1372C303.106 78.1016 300.974 79.5973 298.586 80.6215C296.197 81.6456 293.717 82.1577 291.145 82.1577H291.147ZM289.093 73.5711C291.441 73.5711 293.536 72.9403 295.382 71.6761C297.226 70.4118 298.658 68.6817 299.677 66.4772C300.697 64.2756 301.193 61.7557 301.167 58.9205C301.196 56.0013 300.692 53.4554 299.657 51.2798C298.623 49.1042 297.177 47.4147 295.319 46.2083C293.461 45.0019 291.343 44.4117 288.97 44.4406C286.734 44.4117 284.715 44.9816 282.911 46.1446C281.108 47.3105 279.67 48.9712 278.593 51.1323C277.516 53.2934 276.98 55.8885 276.98 58.9205C276.98 61.7557 277.504 64.2727 278.553 66.4772C279.601 68.6817 281.033 70.4118 282.848 71.6761C284.663 72.9403 286.746 73.5711 289.093 73.5711Z" fill="#9955CC"/>
<path d="M332.037 82.1578C329.355 82.1578 326.866 81.666 324.576 80.6852C322.283 79.7045 320.321 78.391 318.688 76.7506C317.054 75.1103 315.873 73.3194 315.147 71.384L323.53 67.7647C324.144 69.3357 325.227 70.7388 326.78 71.9742C328.33 73.2095 330.084 73.8257 332.04 73.8257C333.241 73.8257 334.345 73.5943 335.353 73.1314C336.361 72.6685 337.168 72.0436 337.785 71.2596C338.398 70.4756 338.706 69.6047 338.706 68.65C338.706 67.5825 338.349 66.6653 337.638 65.8929C336.926 65.1204 336.03 64.4695 334.956 63.9343C333.878 63.4019 332.76 62.9535 331.602 62.5861C330.441 62.2216 329.43 61.8975 328.563 61.6169C326.662 61.0267 324.783 60.2138 322.925 59.1751C321.067 58.1365 319.523 56.7681 318.293 55.0699C317.063 53.3716 316.449 51.2336 316.449 48.6501C316.449 46.0666 317.121 43.7753 318.46 41.8514C319.803 39.9304 321.589 38.4549 323.824 37.4308C326.06 36.4066 328.531 35.8945 331.242 35.8945C334.987 35.8945 338.214 36.8001 340.925 38.6082C343.635 40.4193 345.548 42.5862 346.666 45.1119L338.45 48.5633C337.891 47.5247 337.053 46.515 335.935 45.5314C334.817 44.5506 333.337 44.0588 331.493 44.0588C329.9 44.0588 328.537 44.4725 327.405 45.2999C326.273 46.1274 325.708 47.2846 325.708 48.7716C325.708 50.0359 326.12 51.0514 326.944 51.8238C327.768 52.5963 328.866 53.2414 330.234 53.7593C331.602 54.2801 333.083 54.8037 334.676 55.3389C335.849 55.7035 337.185 56.1895 338.68 56.7913C340.176 57.3959 341.628 58.1886 343.039 59.1694C344.451 60.153 345.609 61.3942 346.519 62.8957C347.427 64.3972 347.882 66.2285 347.882 68.3896C347.882 71.0831 347.156 73.4699 345.701 75.5471C344.249 77.6243 342.319 79.2444 339.916 80.4104C337.514 81.5734 334.886 82.1578 332.037 82.1578Z" fill="#9955CC"/>
</g>
<defs>
<clipPath id="clip0_247_637">
<rect width="348" height="92" fill="white"/>
</clipPath>
</defs>
</svg>
