<svg width="318" height="318" viewBox="0 0 318 318" fill="none" xmlns="http://www.w3.org/2000/svg">
    <path d="M92.0502 176.8C81.5502 180.14 79.3802 209.45 93.4802 253.78C101.2 278.05 112.19 301.77 122.29 317.74H148.13C147.45 299.88 141.88 272.23 134.42 244.44C122.38 199.61 102.54 173.46 92.0502 176.8Z"
          fill="#9955CC"/>
    <path d="M51.19 120.15C52.42 99.6 77.18 89.97 91.8 104.46C120.5 132.9 156.96 194.84 163.09 317.74H181.06C183.29 273.04 189.52 234.72 197.93 205.17C200.38 196.58 207.24 189.97 215.88 187.74L219.64 186.77L269.38 173.96C282.81 170.5 296.88 176.62 303.52 188.8L317.74 214.92V61.04C317.74 27.33 290.41 0 256.7 0H61.04C27.33 0 0 27.33 0 61.04V256.69C0 290.4 27.33 317.73 61.04 317.73H106.09C80.45 280.61 45.67 212.32 51.19 120.14V120.15Z"
          fill="#9955CC"/>
    <path d="M304.23 245.5C263.94 237.78 237.55 222.77 221.71 210.49C217.33 220.07 213.19 231.47 209.71 244.44C202.25 272.22 196.69 299.87 196 317.74H221.85C231.94 301.77 242.94 278.05 250.65 253.78C252.38 248.33 253.87 243.1 255.13 238.13C260.54 242.28 266.55 246.45 273.23 250.55C262.58 278.66 249.41 301.28 238.04 317.75H256.69C290.4 317.75 317.73 290.42 317.73 256.71V241.99C314.24 244.97 309.47 246.52 304.22 245.52L304.23 245.5Z"
          fill="#9955CC"/>
</svg>

