<svg width="36" height="37" viewBox="0 0 36 37" fill="none" xmlns="http://www.w3.org/2000/svg">
<path d="M9.17821 27.4839C9.70283 28.0085 10.5701 27.9978 11.0841 27.4838L18.0117 20.5563L24.9393 27.4839C25.4532 27.9978 26.3205 28.0085 26.8452 27.4839C27.3698 26.9593 27.3698 26.0812 26.8559 25.5673L19.9282 18.6397L26.8452 11.7228C27.3591 11.2088 27.3698 10.3415 26.8452 9.81691C26.3205 9.29225 25.4425 9.29226 24.9286 9.80618L18.0117 16.7231L11.0948 9.80623C10.5808 9.29228 9.70283 9.29229 9.17821 9.81691C8.65356 10.3416 8.66427 11.2088 9.17822 11.7228L16.0951 18.6397L9.16751 25.5673C8.65356 26.0812 8.65356 26.9592 9.17821 27.4839Z" fill="#797979"/>
</svg>
