<svg width="87" height="91" viewBox="0 0 87 91" fill="none" xmlns="http://www.w3.org/2000/svg">
<g clip-path="url(#clip0_1_20)">
<path d="M57 0H30C13.4315 0 0 13.4315 0 30V61C0 77.5685 13.4315 91 30 91H57C73.5685 91 87 77.5685 87 61V30C87 13.4315 73.5685 0 57 0Z" fill="#ECE0F6"/>
</g>
<g clip-path="url(#clip1_1_20)">
<path d="M27.5 66.5C30.4467 66.5 33.042 67.2306 34.8516 68.332C36.6877 69.4497 37.5 70.7902 37.5 72C37.5 73.2098 36.6877 74.5503 34.8516 75.668C33.042 76.7694 30.4467 77.5 27.5 77.5C24.5533 77.5 21.958 76.7694 20.1484 75.668C18.3123 74.5503 17.5 73.2098 17.5 72C17.5 70.7902 18.3123 69.4497 20.1484 68.332C21.958 67.2306 24.5533 66.5 27.5 66.5Z" fill="#ECE0F6" stroke="#7131A2" stroke-width="3"/>
</g>
<g clip-path="url(#clip2_1_20)">
<path d="M59 66.5C62.0958 66.5 64.8253 67.235 66.7295 68.3457C68.6705 69.4779 69.5 70.822 69.5 72C69.5 73.178 68.6705 74.522 66.7295 75.6543C64.8253 76.765 62.0958 77.5 59 77.5C55.9042 77.5 53.1747 76.765 51.2705 75.6543C49.3295 74.522 48.5 73.178 48.5 72C48.5 70.822 49.3295 69.4779 51.2705 68.3457C53.1747 67.235 55.9042 66.5 59 66.5Z" fill="#ECE0F6" stroke="#7131A2" stroke-width="3"/>
</g>
<g clip-path="url(#clip3_1_20)">
<path d="M42.5 29.5C50.9722 29.5 57.5 35.4965 57.5 42.5C57.5 49.5035 50.9722 55.5 42.5 55.5C34.0278 55.5 27.5 49.5035 27.5 42.5C27.5 35.4965 34.0278 29.5 42.5 29.5Z" fill="#ECE0F6" stroke="#7131A2" stroke-width="3"/>
</g>
<g clip-path="url(#clip4_1_20)">
<path d="M44 37.5C56.5858 37.5 66.5 46.6052 66.5 57.5C66.5 68.3948 56.5858 77.5 44 77.5C31.4142 77.5 21.5 68.3948 21.5 57.5C21.5 46.6052 31.4142 37.5 44 37.5Z" fill="#ECE0F6" stroke="#7131A2" stroke-width="3"/>
<g clip-path="url(#clip5_1_20)">
<path d="M43.5 62.5C46.3875 62.5 48.9425 63.3675 50.7402 64.6963C52.5382 66.0253 53.5 67.7404 53.5 69.5C53.5 71.2596 52.5382 72.9747 50.7402 74.3037C48.9425 75.6325 46.3875 76.5 43.5 76.5C40.6125 76.5 38.0575 75.6325 36.2598 74.3037C34.4618 72.9747 33.5 71.2596 33.5 69.5C33.5 67.7404 34.4618 66.0253 36.2598 64.6963C38.0575 63.3675 40.6125 62.5 43.5 62.5Z" fill="#ECE0F6" stroke="#7131A2" stroke-width="3"/>
</g>
</g>
<g clip-path="url(#clip6_1_20)">
<path d="M38.6148 29.6769C38.6148 29.6769 39.0864 25.5251 37.5864 23.0252C36.3997 21.0473 36.1972 19.7198 32.1927 17.1921C30.413 16.0687 25.5938 14.5829 24.0864 16.0252C21.0716 18.9096 32.1927 31.9072 32.1927 31.9072" stroke="#7131A2" stroke-width="3"/>
</g>
<g clip-path="url(#clip7_1_20)">
<path d="M43.5997 29.8137C43.5997 29.8137 44.2405 25.6439 44.822 23.4525C45.4034 21.2611 47.4269 18.4927 49.1001 16.8137C50.4556 15.4536 54.1107 13.4992 56.1 14.8137C60.0787 17.4426 52.4671 31.4247 52.4671 31.4247" stroke="#7131A2" stroke-width="3"/>
</g>
<defs>
<clipPath id="clip0_1_20">
<rect width="87" height="91" fill="white"/>
</clipPath>
<clipPath id="clip1_1_20">
<rect width="23" height="14" fill="white" transform="translate(16 65)"/>
</clipPath>
<clipPath id="clip2_1_20">
<rect width="24" height="14" fill="white" transform="translate(47 65)"/>
</clipPath>
<clipPath id="clip3_1_20">
<rect width="33" height="29" fill="white" transform="translate(26 28)"/>
</clipPath>
<clipPath id="clip4_1_20">
<rect width="48" height="43" fill="white" transform="translate(20 36)"/>
</clipPath>
<clipPath id="clip5_1_20">
<rect width="23" height="17" fill="white" transform="translate(32 61)"/>
</clipPath>
<clipPath id="clip6_1_20">
<rect width="19" height="19" fill="white" transform="translate(22 14)"/>
</clipPath>
<clipPath id="clip7_1_20">
<rect width="17" height="20" fill="white" transform="translate(42 13)"/>
</clipPath>
</defs>
</svg>
