<svg width="85" height="101" viewBox="0 0 85 101" fill="none" xmlns="http://www.w3.org/2000/svg">
<g clip-path="url(#clip0_115_813)">
<path d="M15.0411 100.203H64.5518C74.2021 100.203 79.004 95.3069 79.004 85.61V43.2789C79.004 37.2648 78.3047 34.6542 74.5751 30.8312L48.8873 4.67733C45.3442 1.04096 42.4071 0.248413 37.1857 0.248413H15.0411C5.43736 0.248413 0.588867 5.19015 0.588867 14.8871V85.61C0.588867 95.3536 5.39075 100.203 15.0411 100.203ZM15.3675 92.6963C10.5656 92.6963 8.09472 90.1321 8.09472 85.4701V15.027C8.09472 10.4116 10.5656 7.75427 15.414 7.75427H36.1601V34.8406C36.1601 40.7147 39.0971 43.6052 44.9246 43.6052H71.4982V85.4701C71.4982 90.1321 69.0273 92.6963 64.1788 92.6963H15.3675ZM45.7639 36.5655C43.899 36.5655 43.1997 35.8197 43.1997 33.9548V9.19949L70.0529 36.5655H45.7639Z" fill="#A7A7A7"/>
<path d="M43.3397 83.3256V66.4025L43.06 58.8034L47.0227 62.906L51.2185 67.1951C51.8712 67.8943 52.8036 68.2673 53.736 68.2673C55.6008 68.2673 56.9994 66.9153 56.9994 65.0505C56.9994 63.9782 56.5799 63.1857 55.8339 62.533L42.4073 50.1786C41.4282 49.2929 40.6824 48.9666 39.7966 48.9666C38.9108 48.9666 38.1649 49.2929 37.1859 50.1786L23.7593 62.533C23.0133 63.1857 22.5938 63.9782 22.5938 65.0505C22.5938 66.9153 23.9457 68.2673 25.8571 68.2673C26.7429 68.2673 27.722 67.8943 28.3747 67.1951L32.5705 62.906L36.5332 58.8034L36.2534 66.4025V83.3256C36.2534 85.2371 37.8851 86.7755 39.7966 86.7755C41.708 86.7755 43.3397 85.2371 43.3397 83.3256Z" fill="#A7A7A7"/>
</g>
<defs>
<clipPath id="clip0_115_813">
<rect width="83.8231" height="100" fill="white" transform="translate(0.588867 0.248413)"/>
</clipPath>
</defs>
</svg>
