<svg width="25" height="25" viewBox="0 0 25 25" fill="none" xmlns="http://www.w3.org/2000/svg">
<path d="M0.793457 10.1992C0.793457 15.5703 5.16358 19.9404 10.5347 19.9404C12.6587 19.9404 14.5997 19.2568 16.1988 18.1094L22.2046 24.1274C22.4854 24.4082 22.8516 24.5425 23.2422 24.5425C24.0723 24.5425 24.646 23.9199 24.646 23.102C24.646 22.7114 24.4996 22.3574 24.2432 22.1011L18.274 16.0952C19.5313 14.4595 20.2759 12.4209 20.2759 10.1992C20.2759 4.82813 15.9058 0.458008 10.5347 0.458008C5.16358 0.458008 0.793457 4.82813 0.793457 10.1992ZM2.88086 10.1992C2.88086 5.97559 6.31104 2.54541 10.5347 2.54541C14.7583 2.54541 18.1885 5.97559 18.1885 10.1992C18.1885 14.4228 14.7583 17.853 10.5347 17.853C6.31104 17.853 2.88086 14.4228 2.88086 10.1992Z" fill="#797979"/>
</svg>
